<svg xmlns="http://www.w3.org/2000/svg" viewBox="0 0 118 66"><g fill="#fff200" fill-rule="evenodd"><path d="M15.114 1.71c14.975 0 22.462 7.25 22.462 21.749 0 14.501-7.227 21.752-21.68 21.752h-15.895v-43.501h15.114zm-1.981 39.41h1.72c5.802 0 8.703-5.8 8.703-17.401 0-11.6-2.901-17.4-8.703-17.4h-1.72v34.801z"/><path d="M68.377 12.067c-2.155-3.556-5.021-5.524-8.598-5.904-3.615-.38-5.907.069-6.88 1.346-1.009 1.314-.938 2.504.208 3.574 1.215 1.105 4.812 2.589 10.788 4.454 6.045 1.83 9.97 4.764 11.779 8.803 1.841 4.109 2.241 7.924 1.198 11.445-1.043 3.557-3.162 6.214-6.358 7.975-3.198 1.761-6.707 2.675-10.527 2.745-3.788.104-7.245-.466-10.372-1.709-3.092-1.277-5.455-3.262-7.088-5.956-1.598-2.589-1.425-5.921.522-9.994l8.182 3.21c-2.259 1.036-3.075 2.607-2.449 4.713.625 2.106 2.379 3.659 5.264 4.66 2.606.967 5.454 1.209 8.547.726 2.848-.483 4.655-1.709 5.419-3.677.764-1.968-.087-3.866-2.554-5.697-1.215-.897-2.813-1.742-4.795-2.536-1.98-.795-4.377-1.52-7.192-2.176-5.559-1.346-9.172-3.762-10.839-7.25-1.634-3.521-1.842-6.87-.626-10.047 1.216-3.176 2.988-5.438 5.316-6.784 2.327-1.381 4.951-2.123 7.869-2.227 1.46-.069 2.77-.112 3.936-.129 1.163-.017 2.197-.008 3.101.026 1.563 0 3.613-.551 6.149-1.657l4.743 9.426-4.743 2.641z"/><path d="M99.699 45.885c-12.232 0-18.346-3.901-18.346-11.706v-32.469h13.968v31.072c0 5.799 3.023 8.718 9.068 8.752 6.08.035 9.121-2.882 9.121-8.752v-31.072h4.429v31.486c0 8.459-6.08 12.689-18.24 12.689"/><path d="M0 51.375h4.104c1.13 0 2.08.112 2.85.335.77.223 1.448.58 2.037 1.073.826.689 1.466 1.534 1.922 2.531.456.998.683 2.066.683 3.201 0 1.267-.252 2.421-.753 3.462-.502 1.04-1.213 1.889-2.131 2.545-.609.427-1.266.733-1.973.916-.707.184-1.798.276-3.271.276h-3.469v-14.34zm1.397 1.369v11.621h2.944c1.837 0 3.251-.513 4.243-1.536.991-1.025 1.487-2.476 1.487-4.352 0-.939-.169-1.806-.506-2.601-.337-.794-.819-1.462-1.447-1.999-.47-.407-.995-.698-1.576-.872-.582-.174-1.428-.26-2.537-.26h-2.608z"/><path d="M17.296 51.374l-5.6 14.34h1.497l1.724-4.501h6.424l1.725 4.501h1.518l-5.581-14.34h-1.705zm.813 1.35l2.737 7.199h-5.433l2.696-7.199z"/><path d="M33.719 51.374l-6.68 7.969v-7.969h-1.397v14.341h1.397v-4.423l1.626-1.93 4.896 6.353h1.746l-5.731-7.407 5.828-6.935h-1.685z"/><path d="M34.919 58.456c0-.998.194-1.95.58-2.856.386-.907.946-1.718 1.68-2.433.707-.689 1.485-1.208 2.334-1.557.849-.348 1.769-.522 2.762-.522 1.01 0 1.946.176 2.809.528.863.351 1.651.874 2.364 1.571.733.716 1.285 1.516 1.655 2.403.37.886.555 1.842.555 2.866 0 1.018-.158 1.952-.476 2.802-.317.85-.792 1.623-1.427 2.32-.733.801-1.562 1.404-2.488 1.812-.924.407-1.93.61-3.012.61-2.076 0-3.816-.724-5.224-2.171-1.408-1.448-2.112-3.238-2.112-5.373m1.487.02c0 1.747.572 3.21 1.715 4.392 1.142 1.182 2.553 1.773 4.232 1.773 1.639 0 3.024-.597 4.153-1.792 1.13-1.196 1.695-2.666 1.695-4.412 0-1.629-.581-3.032-1.744-4.211-1.163-1.179-2.564-1.768-4.202-1.768-.668 0-1.31.113-1.928.34-.618.225-1.188.559-1.711.999-.687.578-1.228 1.284-1.62 2.118-.394.834-.59 1.687-.59 2.561"/><path d="M49.688 51.374v1.408h2.884v12.932h1.418v-12.932h2.884v-1.408h-7.185z"/><path d="M61.374 51.374l-5.6 14.34h1.497l1.725-4.501h6.422l1.725 4.501h1.517l-5.58-14.34h-1.704zm.812 1.35l2.737 7.199h-5.432l2.695-7.199z"/><path d="M74.705 61.617h1.368c.026.886.279 1.593.758 2.118.479.525 1.109.787 1.888.787.839 0 1.505-.26 1.997-.783.492-.521.739-1.229.739-2.122 0-1.301-1.011-2.281-3.033-2.945l-.357-.118c-1.056-.361-1.819-.819-2.284-1.374-.466-.555-.699-1.279-.699-2.171 0-1.142.358-2.079 1.075-2.807.718-.728 1.645-1.093 2.781-1.093 1.083 0 1.943.332 2.578.995.633.663.988 1.595 1.061 2.798h-1.339c-.073-.782-.307-1.384-.704-1.807-.397-.424-.929-.636-1.596-.636-.714 0-1.297.232-1.749.695-.453.463-.68 1.052-.68 1.768 0 .375.068.698.204.97.135.273.352.52.649.744.304.223.886.472 1.745.748.495.157.872.285 1.129.383.938.361 1.614.823 2.027 1.384.413.561.62 1.298.62 2.211 0 1.392-.382 2.513-1.146 3.363-.763.851-1.775 1.275-3.037 1.275-1.177 0-2.131-.401-2.864-1.207-.733-.804-1.111-1.863-1.13-3.176"/><path d="M83.685 51.374v1.408h2.885v12.932h1.417v-12.932h2.884v-1.408h-7.185z"/><path d="M95.326 51.374l-5.6 14.34h1.496l1.726-4.501h6.423l1.724 4.501h1.518l-5.581-14.34h-1.705zm.813 1.35l2.737 7.199h-5.432l2.695-7.199z"/><path d="M101.749 51.374v1.408h2.886v12.932h1.416v-12.932h2.885v-1.408h-7.186z"/><path d="M110.402 51.374v14.341h7.493v-1.39h-6.065v-5.101h6.065v-1.419h-6.065v-5.022h6.065v-1.41h-7.493z"/></g></svg>
